<svg xmlns="http://www.w3.org/2000/svg" width="49.979" height="45.191" viewBox="0 0 49.979 45.191">
  <path id="Tracé_809" data-name="Tracé 809" d="M49.979,90.1l-.672.672-.924-.084A78.053,78.053,0,0,1,37.8,95.311a33.173,33.173,0,0,1-10.92,2.016c-7.476,0-13.776-1.932-19.068-5.965Q0,85.44,0,74.731c0-7.055,2.519-12.6,7.727-16.631,5.208-3.949,11.592-5.88,19.152-5.964a40.281,40.281,0,0,1,7.14.588,35.318,35.318,0,0,1,6.132,1.343,47.48,47.48,0,0,1,4.536,1.512,11.1,11.1,0,0,0,2.017.756c.168,0,.336-.084.671-.42a6.7,6.7,0,0,0,.5-.672l1.26,1.008L42.587,66.415l-.839-.588-.168-1.092c-.168-1.175-1.933-2.351-5.376-3.528a31.047,31.047,0,0,0-9.325-1.848,19.51,19.51,0,0,0-12.516,4.117,13.561,13.561,0,0,0-5.123,11,13.649,13.649,0,0,0,5.039,11.087,19.536,19.536,0,0,0,12.6,4.031,29.8,29.8,0,0,0,11-2.184c3.781-1.511,5.628-3.023,5.712-4.535a1.61,1.61,0,0,0-.336-1.007l1.176-.672Z" transform="translate(0 -52.136)" fill="#c40012"/>
</svg>
