<svg id="Groupe_522" data-name="Groupe 522" xmlns="http://www.w3.org/2000/svg" xmlns:xlink="http://www.w3.org/1999/xlink" width="316.661" height="97.942" viewBox="0 0 316.661 97.942">
  <defs>
    <clipPath id="clip-path">
      <rect id="Rectangle_19" data-name="Rectangle 19" width="316.661" height="97.942" transform="translate(0 0)" fill="none"/>
    </clipPath>
  </defs>
  <g id="Groupe_521" data-name="Groupe 521" clip-path="url(#clip-path)">
    <path id="Tracé_796" data-name="Tracé 796" d="M49.979,90.1l-.672.672-.924-.084A78.053,78.053,0,0,1,37.8,95.311a33.173,33.173,0,0,1-10.92,2.016c-7.476,0-13.776-1.932-19.068-5.965Q0,85.44,0,74.731c0-7.055,2.519-12.6,7.727-16.631,5.208-3.949,11.592-5.88,19.152-5.964a40.281,40.281,0,0,1,7.14.588,35.318,35.318,0,0,1,6.132,1.343,47.48,47.48,0,0,1,4.536,1.512,11.1,11.1,0,0,0,2.017.756c.168,0,.336-.084.671-.42a6.7,6.7,0,0,0,.5-.672l1.26,1.008L42.587,66.415l-.839-.588-.168-1.092c-.168-1.175-1.933-2.351-5.376-3.528a31.047,31.047,0,0,0-9.325-1.848,19.51,19.51,0,0,0-12.516,4.117,13.561,13.561,0,0,0-5.123,11,13.649,13.649,0,0,0,5.039,11.087,19.536,19.536,0,0,0,12.6,4.031,29.8,29.8,0,0,0,11-2.184c3.781-1.511,5.628-3.023,5.712-4.535a1.61,1.61,0,0,0-.336-1.007l1.176-.672Z" fill="#c40012"/>
    <path id="Tracé_797" data-name="Tracé 797" d="M73.464,61.623h11.6v1.44c-1.2,0-1.76.4-1.84,1.2V90.9h21.6c1.44,0,2.16-.561,2.24-1.68h1.44v8.639h-1.44c0-.639-.72-.959-2.24-1.039H73.464v-1.44c1.36,0,2-.4,2.08-1.2V64.264c0-.8-.641-1.2-2.08-1.2Z" fill="#c40012"/>
    <path id="Tracé_798" data-name="Tracé 798" d="M129.784,96.823V95.384c1.439,0,2.159-.4,2.239-1.2V64.264c0-.8-.719-1.2-2.239-1.2V61.623h12.159v1.441c-1.439,0-2.159.4-2.239,1.2V94.182c0,.8.72,1.2,2.239,1.2v1.439Z" fill="#c40012"/>
    <path id="Tracé_799" data-name="Tracé 799" d="M166.425,96.823V95.384q1.436,0,1.437-1.2V64.264q0-1.2-1.437-1.2V61.623h11.76v1.441c-.162,0-.323.08-.563.4a9.554,9.554,0,0,0,1.76,2.16l19.2,20.319V64.264c0-.8-.482-1.2-1.6-1.2V61.623h9.759v1.441q-1.438,0-1.439,1.2V94.182q0,1.2,1.439,1.2v1.439h-10.4V95.384c.318,0,.476-.081.558-.4,0-.16-.318-.56-.959-1.2-.562-.641-1.041-1.2-1.519-1.762L174.585,70.9V94.182q0,1.2,1.678,1.2v1.439Z" fill="#c40012"/>
    <path id="Tracé_800" data-name="Tracé 800" d="M262.9,69.063h-1.441c0-.96-.8-1.44-2.479-1.52H239.462v8h12.322a6.575,6.575,0,0,0,1.92-.161c.476-.08.717-.4.717-1.121h1.441v8.48h-1.6c.159-.48,0-.8-.558-.959a11.875,11.875,0,0,0-2.561-.32H239.462V90.9h20.482c1.438,0,2.158-.48,2.236-1.6h1.442v8.639H262.18c0-.719-.718-1.04-2.236-1.12H230.581V95.383a1.063,1.063,0,0,0,1.2-1.2V64.263a1.062,1.062,0,0,0-1.2-1.2v-1.44h28.4c1.6,0,2.4-.48,2.479-1.44H262.9Z" fill="#c40012"/>
    <path id="Tracé_801" data-name="Tracé 801" d="M294.181,95.383a1.06,1.06,0,0,0,1.2-1.2V67.543h-10.4c-1.121,0-1.68.4-1.762,1.36h-1.438V59.7h1.438a2.3,2.3,0,0,0,.482,1.52,2.673,2.673,0,0,0,1.28.4h28.478a1.88,1.88,0,0,0,1.281-.4c.319-.24.479-.72.479-1.52h1.439v9.2h-1.439a1.044,1.044,0,0,0-.561-.96,2.639,2.639,0,0,0-1.2-.4h-10.4V94.182c0,.8.482,1.2,1.441,1.2v1.439H294.181Z" fill="#c40012"/>
    <path id="Tracé_802" data-name="Tracé 802" d="M96.481,19.944l-.288.288-.4-.036a33.513,33.513,0,0,1-4.535,1.98,14.217,14.217,0,0,1-4.68.864,13.018,13.018,0,0,1-8.172-2.556,8.425,8.425,0,0,1-3.348-7.128,8.49,8.49,0,0,1,3.312-7.128,13.428,13.428,0,0,1,8.208-2.556,17.274,17.274,0,0,1,3.06.252,15.1,15.1,0,0,1,2.628.576,19.812,19.812,0,0,1,1.943.648,4.716,4.716,0,0,0,.865.323c.072,0,.144-.035.288-.179A2.871,2.871,0,0,0,95.581,5l.54.432L93.313,9.792l-.36-.252-.073-.468c-.071-.5-.827-1.008-2.3-1.512a13.239,13.239,0,0,0-4-.792,8.363,8.363,0,0,0-5.365,1.764,5.814,5.814,0,0,0-2.195,4.716A5.848,5.848,0,0,0,81.181,18a8.368,8.368,0,0,0,5.4,1.728,12.766,12.766,0,0,0,4.715-.936c1.621-.648,2.413-1.3,2.449-1.944a.692.692,0,0,0-.144-.432l.5-.288Z" fill="#141215"/>
    <path id="Tracé_803" data-name="Tracé 803" d="M109.513,16.2v5.436a.477.477,0,0,0,.54.54v.648h-4.536v-.648a.477.477,0,0,0,.54-.54V8.172a.477.477,0,0,0-.54-.54V6.984h4.536v.648a.477.477,0,0,0-.54.54v5.076h9.648V8.172a.477.477,0,0,0-.54-.54V6.984h4.537v.648a.478.478,0,0,0-.541.54V21.636a.478.478,0,0,0,.541.54v.648h-4.537v-.648a.477.477,0,0,0,.54-.54V16.2Z" fill="#141215"/>
    <path id="Tracé_804" data-name="Tracé 804" d="M139.248,10.152l2.916,6.048h-5.472Zm-4.284,12.672v-.648c-.468,0-.684-.144-.684-.432a3.785,3.785,0,0,1,.073-.4,1.936,1.936,0,0,0,.252-.54l1.007-1.944h7.7l.972,2.052c.036.108.072.215.145.4a1.236,1.236,0,0,1,.107.468.493.493,0,0,1-.575.5v.54h5.111v-.648a1.283,1.283,0,0,1-.863-.684l-5.832-12.24c-.145-.252-.253-.468-.36-.684a1.2,1.2,0,0,1-.145-.54.559.559,0,0,1,.36-.4V6.984H136.8v.647c.216.145.288.252.288.4a3.636,3.636,0,0,1-.145.611c-.108.253-.215.505-.324.792l-5.363,11.7a2.134,2.134,0,0,1-.469.685.86.86,0,0,1-.647.36v.648Zm4.248-20.88,2.52,3.239h3.348L141.192,0h-4l-3.887,5.183h3.347Z" fill="#141215"/>
    <path id="Tracé_805" data-name="Tracé 805" d="M159.59,22.176a.477.477,0,0,0,.539-.54V9.649h-4.681c-.5,0-.756.179-.792.611h-.647V6.12h.647a1.043,1.043,0,0,0,.216.684,1.224,1.224,0,0,0,.576.181h12.816a.846.846,0,0,0,.576-.181c.146-.108.215-.323.215-.684h.65v4.14h-.65a.467.467,0,0,0-.25-.432,1.2,1.2,0,0,0-.541-.179h-4.678V21.636q0,.54.645.54v.648H159.59Z" fill="#141215"/>
    <path id="Tracé_806" data-name="Tracé 806" d="M191.594,10.332h-.648c0-.432-.36-.647-1.116-.684h-8.785v3.6h5.543a2.967,2.967,0,0,0,.865-.072c.217-.035.325-.18.325-.5h.648v3.816h-.721c.073-.216,0-.36-.252-.431a5.215,5.215,0,0,0-1.152-.145h-5.256V20.16h9.217c.648,0,.973-.216,1.008-.72h.648v3.888h-.648c0-.324-.324-.468-1.008-.5H177.047v-.648a.477.477,0,0,0,.541-.54V8.172a.477.477,0,0,0-.541-.54V6.984H189.83c.717,0,1.08-.215,1.116-.648h.648Z" fill="#141215"/>
    <path id="Tracé_807" data-name="Tracé 807" d="M207,10.152l2.916,6.048h-5.473Zm-4.287,12.672v-.648c-.467,0-.684-.144-.684-.432a3.785,3.785,0,0,1,.073-.4,1.83,1.83,0,0,0,.252-.54l1.007-1.944h7.707l.969,2.052c.039.108.074.216.147.4a1.279,1.279,0,0,1,.107.468c-.037.36-.215.5-.578.5v.54h5.115v-.648a1.288,1.288,0,0,1-.867-.684l-5.832-12.24c-.143-.252-.252-.468-.359-.684a1.206,1.206,0,0,1-.143-.54c.035-.181.143-.288.359-.4V6.984h-5.435v.648c.217.144.287.252.287.4a3.365,3.365,0,0,1-.145.611c-.107.253-.216.505-.324.792l-5.363,11.7a2.114,2.114,0,0,1-.469.684.855.855,0,0,1-.648.36v.648Z" fill="#141215"/>
    <path id="Tracé_808" data-name="Tracé 808" d="M228.422,6.984v.647c-.5,0-.758.181-.793.54v8.245a3.481,3.481,0,0,0,1.3,2.808,6.507,6.507,0,0,0,3.814,1.008,6,6,0,0,0,3.782-1.008,3.53,3.53,0,0,0,1.332-2.808V8.171c0-.359-.291-.54-.9-.54V6.984h5v.647c-.5,0-.756.181-.791.54V17.28a5.12,5.12,0,0,1-2.16,4.1c-1.4,1.08-3.49,1.621-6.264,1.657-2.736,0-4.822-.54-6.263-1.657a5.027,5.027,0,0,1-2.162-4.1V8.171c0-.359-.321-.54-1.043-.54V6.984Z" fill="#141215"/>
  </g>
</svg>
